<svg width="21" height="18" viewBox="0 0 21 18" fill="none" xmlns="http://www.w3.org/2000/svg">
<path d="M7.79388 1.15555C8.31633 0.633101 9.15714 0.633101 9.67959 1.15555C9.94082 1.41677 10.0714 1.75555 10.0714 2.09841C10.0714 2.44127 9.94082 2.78004 9.67959 3.04127L5.05102 7.66575L19.1653 7.66575C19.9 7.66575 20.5 8.26167 20.5 9.00045C20.5 9.73922 19.9041 10.3351 19.1653 10.3351L5.05102 10.3351L9.67959 14.9596C10.202 15.4821 10.202 16.3229 9.67959 16.8453C9.15714 17.3678 8.31633 17.3678 7.79388 16.8453L0.891837 9.94331C0.638776 9.69433 0.5 9.35555 0.5 9.00045C0.5 8.64535 0.638776 8.30657 0.891837 8.05759L7.79388 1.15555Z" fill="white"/>
</svg>
