<svg width="24" height="24" viewBox="0 0 24 24" fill="none" xmlns="http://www.w3.org/2000/svg">
<g clip-path="url(#clip0_0_1126)">
<mask id="mask0_0_1126" style="mask-type:luminance" maskUnits="userSpaceOnUse" x="0" y="0" width="24" height="24">
<path d="M21.222 5.25531C21.0101 4.71128 20.7572 4.32171 20.3499 3.91437C19.9412 3.50566 19.553 3.25278 19.0076 3.04227C18.5961 2.88234 17.9783 2.69234 16.841 2.6404C15.6108 2.58435 15.2417 2.57205 12.1265 2.57205C9.01129 2.57205 8.64222 2.58435 7.41199 2.6404C6.27472 2.69234 5.65687 2.88234 5.24543 3.04227C4.70139 3.25414 4.31182 3.50702 3.90448 3.91437C3.49577 4.32308 3.24289 4.71128 3.03238 5.25531C2.87245 5.66676 2.68245 6.28461 2.63051 7.42188C2.57446 8.65211 2.56216 9.02118 2.56216 12.1364C2.56216 15.2516 2.57446 15.6207 2.63051 16.8509C2.68245 17.9882 2.87245 18.606 3.03238 19.0175C3.24426 19.5615 3.49714 19.9511 3.90448 20.3584C4.31319 20.7671 4.70139 21.0186 5.24543 21.2305C5.65687 21.3904 6.27472 21.5804 7.41199 21.6324C8.64222 21.6884 9.01129 21.7007 12.1265 21.7007C15.2417 21.7007 15.6108 21.6884 16.841 21.6324C17.9783 21.5804 18.5961 21.3904 19.0076 21.2305C19.553 21.0186 19.9412 20.7658 20.3499 20.3584C20.7572 19.9497 21.0101 19.5615 21.222 19.0175C21.3819 18.606 21.5719 17.9882 21.6239 16.8509C21.6799 15.6207 21.6922 15.2516 21.6922 12.1364C21.6922 9.02118 21.6799 8.65211 21.6239 7.42188C21.5719 6.28461 21.3819 5.66676 21.222 5.25531ZM12.1279 18.1276C8.81856 18.1276 6.13666 15.4457 6.13666 12.1364C6.13666 8.82708 8.81856 6.14518 12.1279 6.14518C15.4372 6.14518 18.1191 8.82708 18.1191 12.1364C18.1191 15.4457 15.4372 18.1276 12.1279 18.1276ZM18.3556 7.30843C17.5819 7.30843 16.9558 6.68101 16.9558 5.9087C16.9558 5.13639 17.5832 4.50898 18.3556 4.50898C19.1279 4.50898 19.7553 5.13503 19.7553 5.9087C19.7553 6.68238 19.1279 7.30843 18.3556 7.30843ZM12.1279 8.2475C9.98044 8.2475 8.23898 9.98896 8.23898 12.1364C8.23898 14.2838 9.98044 16.0253 12.1279 16.0253C14.2753 16.0253 16.0168 14.2838 16.0168 12.1364C16.0168 9.98896 14.2753 8.2475 12.1279 8.2475ZM23.7248 16.9466C23.6674 18.1877 23.4706 19.0366 23.1822 19.7788C22.8842 20.5457 22.485 21.1963 21.8357 21.8456C21.1864 22.4935 20.5372 22.8927 19.769 23.1907C19.0267 23.4791 18.1792 23.6759 16.9367 23.7333C15.6928 23.7894 15.295 23.8031 12.1265 23.8031C8.95798 23.8031 8.56157 23.7894 7.31631 23.7333C6.07515 23.6759 5.22629 23.4791 4.48405 23.1907C3.71721 22.8927 3.06656 22.4935 2.41727 21.8456C1.76798 21.1963 1.37021 20.5457 1.07222 19.7788C0.783799 19.0366 0.586962 18.1891 0.529552 16.9466C0.473508 15.7027 0.459839 15.3049 0.459839 12.1364C0.459839 8.96787 0.473508 8.5701 0.529552 7.3262C0.585596 6.08504 0.783799 5.23618 1.07222 4.49394C1.37021 3.7271 1.76935 3.07644 2.41727 2.42716C3.06656 1.77924 3.71584 1.3801 4.48405 1.08211C5.22629 0.793687 6.07378 0.59685 7.31631 0.539439C8.56021 0.482029 8.95798 0.469727 12.1265 0.469727C15.295 0.469727 15.6928 0.483396 16.9367 0.539439C18.1779 0.595483 19.0267 0.793687 19.769 1.08211C20.5358 1.3801 21.1864 1.77924 21.8357 2.42716C22.4837 3.07644 22.8828 3.7271 23.1822 4.49394C23.4706 5.23618 23.6674 6.08367 23.7248 7.3262C23.7822 8.5701 23.7945 8.96787 23.7945 12.1364C23.7945 15.3049 23.7809 15.7027 23.7248 16.9466Z" fill="white"/>
</mask>
<g mask="url(#mask0_0_1126)">
<rect x="0.153931" y="0.137695" width="23.9211" height="23.9211" fill="#ffffff"/>
</g>
</g>
<defs>
<clipPath id="clip0_0_1126">
<rect width="23.3333" height="23.3333" fill="white" transform="translate(0.461487 0.469727)"/>
</clipPath>
</defs>
</svg>
