<svg width="20" height="21" viewBox="0 0 20 21" fill="none" xmlns="http://www.w3.org/2000/svg">
<path d="M10.0015 20.9345C8.65116 20.9345 7.34284 20.6705 6.10653 20.1485C4.91523 19.6446 3.84696 18.9246 2.92873 18.0066C2.0105 17.0887 1.29032 16.0207 0.786197 14.8298C0.264066 13.5969 0 12.2859 0 10.936C0 9.58607 0.264066 8.27813 0.786197 7.0422C1.29032 5.85125 2.0105 4.78331 2.92873 3.86535C3.84696 2.9474 4.91523 2.22744 6.10653 1.72346C7.33984 1.20149 8.65116 0.9375 10.0015 0.9375C11.3518 0.9375 12.6602 1.20149 13.8965 1.72346C15.0878 2.22744 16.156 2.9474 17.0743 3.86535C17.9925 4.78331 18.7127 5.85125 19.2168 7.0422C19.7389 8.27513 20.003 9.58607 20.003 10.936V12.4359C20.003 14.3648 18.4336 15.9368 16.5011 15.9368C14.5686 15.9368 14.2356 15.3278 13.6054 14.4008C12.6962 15.3488 11.4149 15.9368 10.0015 15.9368C7.24381 15.9368 4.99925 13.6929 4.99925 10.936C4.99925 8.17914 7.24381 5.93525 10.0015 5.93525C12.7592 5.93525 12.165 6.30723 13.0023 6.9372C13.0023 6.38223 13.4494 5.93525 14.0015 5.93525C14.5536 5.93525 15.0007 6.38223 15.0007 6.9342V12.4329C15.0007 13.2609 15.6729 13.9329 16.5011 13.9329C17.3293 13.9329 18.0015 13.2609 18.0015 12.4329V10.933C18.0015 6.52322 14.4126 2.9324 9.9985 2.9324C5.5844 2.9324 1.9985 6.52622 1.9985 10.936C1.9985 15.3458 5.5874 18.9366 10.0015 18.9366C14.4156 18.9366 13.4104 18.3846 14.8027 17.3377C15.2438 17.0047 15.871 17.0947 16.2041 17.5357C16.5371 17.9766 16.4471 18.6036 16.006 18.9366C14.2626 20.2445 12.189 20.9375 10.0015 20.9375V20.9345ZM10.0015 7.93615C8.34809 7.93615 7.00075 9.28308 7.00075 10.936C7.00075 12.5889 8.34809 13.9358 10.0015 13.9358C11.6549 13.9358 13.0023 12.5889 13.0023 10.936C13.0023 9.28308 11.6549 7.93615 10.0015 7.93615Z" fill="#A93800"/>
</svg>
